{"accessors":[{"bufferView":0,"componentType":5121,"count":36,"max":[23],"min":[0],"type":"SCALAR"},{"bufferView":1,"componentType":5126,"count":24,"max":[1.0,1.0,1.0],"min":[-1.0,-1.0,-1.0],"type":"VEC3"},{"bufferView":2,"componentType":5126,"count":24,"max":[1.0,1.0,1.0],"min":[-1.0,-1.0,-1.0],"type":"VEC3"},{"bufferView":3,"componentType":5126,"count":24,"max":[0.875,1.0],"min":[0.125,0.0],"type":"VEC2"},{"bufferView":4,"componentType":5126,"count":24,"max":[3.0,0.0,0.0],"min":[0.0,0.0,0.0],"type":"VEC3"},{"bufferView":5,"componentType":5126,"count":24,"max":[0.0,0.0,-0.0],"min":[0.0,0.0,-0.0],"type":"VEC3"},{"bufferView":6,"componentType":5121,"count":240,"max":[239],"min":[0],"type":"SCALAR"},{"bufferView":7,"componentType":5126,"count":240,"max":[0.9510578513145447,1.0,0.9999999403953552],"min":[-0.9510578513145447,-1.0,-0.9999999403953552],"type":"VEC3"},{"bufferView":8,"componentType":5126,"count":240,"max":[0.9920774102210999,0.9435237646102905,0.9435215592384338],"min":[-0.9920774102210999,-0.9435237646102905,-0.9435215592384338],"type":"VEC3"},{"bufferView":9,"componentType":5126,"count":240,"max":[1.0,1.0],"min":[0.0,0.5276179909706116],"type":"VEC2"},{"bufferView":10,"componentType":5121,"count":240,"max":[239],"min":[0],"type":"SCALAR"},{"bufferView":11,"componentType":5126,"count":240,"max":[0.9510578513145447,1.0,0.9999999403953552],"min":[-0.9510578513145447,-1.0,-0.9999999403953552],"type":"VEC3"},{"bufferView":12,"componentType":5126,"count":240,"max":[0.9920774102210999,0.9435237646102905,0.9435215592384338],"min":[-0.9920774102210999,-0.9435237646102905,-0.9435215592384338],"type":"VEC3"},{"bufferView":13,"componentType":5126,"count":240,"max":[1.0,1.0],"min":[0.0,0.5276179909706116],"type":"VEC2"},{"bufferView":14,"componentType":5121,"count":240,"max":[239],"min":[0],"type":"SCALAR"},{"bufferView":15,"componentType":5126,"count":240,"max":[0.9510578513145447,1.0,0.9999999403953552],"min":[-0.9510578513145447,-1.0,-0.9999999403953552],"type":"VEC3"},{"bufferView":16,"componentType":5126,"count":240,"max":[0.9920774102210999,0.9435237646102905,0.9435215592384338],"min":[-0.9920774102210999,-0.9435237646102905,-0.9435215592384338],"type":"VEC3"},{"bufferView":17,"componentType":5126,"count":240,"max":[1.0,1.0],"min":[0.0,0.5276179909706116],"type":"VEC2"},{"bufferView":18,"componentType":5121,"count":240,"max":[239],"min":[0],"type":"SCALAR"},{"bufferView":19,"componentType":5126,"count":240,"max":[0.9510578513145447,1.0,0.9999999403953552],"min":[-0.9510578513145447,-1.0,-0.9999999403953552],"type":"VEC3"},{"bufferView":20,"componentType":5126,"count":240,"max":[0.9920774102210999,0.9435237646102905,0.9435215592384338],"min":[-0.9920774102210999,-0.9435237646102905,-0.9435215592384338],"type":"VEC3"},{"bufferView":21,"componentType":5126,"count":240,"max":[1.0,1.0],"min":[0.0,0.5276179909706116],"type":"VEC2"}],"asset":{"generator":"Verge3D for Blender","version":"2.0"},"bufferViews":[{"buffer":0,"byteLength":36,"byteOffset":0,"target":34963},{"buffer":0,"byteLength":288,"byteOffset":36,"target":34962},{"buffer":0,"byteLength":288,"byteOffset":324,"target":34962},{"buffer":0,"byteLength":192,"byteOffset":612,"target":34962},{"buffer":0,"byteLength":288,"byteOffset":804},{"buffer":0,"byteLength":288,"byteOffset":1092},{"buffer":0,"byteLength":240,"byteOffset":1380,"target":34963},{"buffer":0,"byteLength":2880,"byteOffset":1620,"target":34962},{"buffer":0,"byteLength":2880,"byteOffset":4500,"target":34962},{"buffer":0,"byteLength":1920,"byteOffset":7380,"target":34962},{"buffer":0,"byteLength":240,"byteOffset":9300,"target":34963},{"buffer":0,"byteLength":2880,"byteOffset":9540,"target":34962},{"buffer":0,"byteLength":2880,"byteOffset":12420,"target":34962},{"buffer":0,"byteLength":1920,"byteOffset":15300,"target":34962},{"buffer":0,"byteLength":240,"byteOffset":17220,"target":34963},{"buffer":0,"byteLength":2880,"byteOffset":17460,"target":34962},{"buffer":0,"byteLength":2880,"byteOffset":20340,"target":34962},{"buffer":0,"byteLength":1920,"byteOffset":23220,"target":34962},{"buffer":0,"byteLength":240,"byteOffset":25140,"target":34963},{"buffer":0,"byteLength":2880,"byteOffset":25380,"target":34962},{"buffer":0,"byteLength":2880,"byteOffset":28260,"target":34962},{"buffer":0,"byteLength":1920,"byteOffset":31140,"target":34962}],"buffers":[{"byteLength":33060,"uri":"cube morph.bin"}],"cameras":[{"extensions":{"S8S_v3d_camera":{"controls":"ORBIT","enablePan":true,"moveSpeed":1.0,"orbitMaxDistance":100.0,"orbitMaxPolarAngle":3.1415927410125732,"orbitMaxZoom":100.0,"orbitMinDistance":0.0,"orbitMinPolarAngle":0.0,"orbitMinZoom":0.009999999776482582,"orbitTarget":[0.4500000476837158,-0.06000041961669922,1.4700000286102295],"rotateSpeed":1.0,"viewportFitInitialAspect":1.7777777247958713,"viewportFitType":"AUTO"}},"name":"Camera","perspective":{"aspectRatio":1.7777777247958713,"yfov":0.693955203682065,"zfar":100.0,"znear":0.10000000149011612},"type":"perspective"}],"extensions":{"S8S_v3d_lights":{"lights":[{"color":[1.0,1.0,1.0],"decay":2,"distance":70.71067890890818,"intensity":5000.0,"name":"Sun","profile":"blender","shadow":{"bias":-0.0018,"cameraFar":70.71067890890818,"cameraFov":0,"cameraNear":0.05000000074505806,"enabled":true,"expBias":2.5,"mapSize":512,"radius":1.0,"slopeScaledBias":2.5},"type":"point"}]}},"extensionsUsed":["S8S_v3d_texture","S8S_v3d_materials","S8S_v3d_camera","S8S_v3d_lights","S8S_v3d_mesh","S8S_v3d_node","S8S_v3d_scene"],"images":[{"uri":"cape_hill_4k.png"}],"materials":[{"extensions":{"S8S_v3d_materials":{"gtaoVisible":true,"materialIndex":0,"nodeGraph":{"edges":[{"fromNode":0,"fromOutput":0,"toInput":0,"toNode":1},{"fromNode":2,"fromOutput":0,"toInput":0,"toNode":0}],"nodes":[{"inputs":[[0.800000011920929,0.800000011920929,0.800000011920929,1.0],0.0,[1.0,0.20000000298023224,0.10000000149011612],[0.800000011920929,0.800000011920929,0.800000011920929,1.0],1.399999976158142,0.0,1.0,0.5,0.0,0.0,0.0,0.0,0.0,0.5,0.0,0.029999999329447746,1.4500000476837158,0.0,0.0,[0.0,0.0,0.0,1.0],1.0,0.19166666269302368,[0.0,0.0,0.0],[0.0,0.0,0.0],[0.0,0.0,0.0]],"is_active_output":false,"name":"Principled BSDF","outputs":[[0,0,0,0]],"type":"BSDF_PRINCIPLED_BL"},{"inputs":[[0,0,0,0],[0,0,0,0],[0.0,0.0,0.0]],"is_active_output":true,"name":"Material Output","outputs":[],"type":"OUTPUT_MATERIAL_BL"},{"inputs":[],"is_active_output":false,"name":"RGB","outputs":[[0.030589163303375244,0.23899218440055847,0.5,1.0]],"type":"RGB_BL"}]},"useCastShadows":true}},"name":"Blue"},{"extensions":{"S8S_v3d_materials":{"gtaoVisible":true,"materialIndex":0,"nodeGraph":{"edges":[{"fromNode":0,"fromOutput":0,"toInput":0,"toNode":1}],"nodes":[{"inputs":[[0.4479775130748749,0.2188994139432907,0.12343190610408783,1.0],0.0,[1.0,0.20000000298023224,0.10000000149011612],[0.800000011920929,0.800000011920929,0.800000011920929,1.0],1.399999976158142,0.0,1.0,0.5,0.0,0.0,0.0,0.0,0.0,0.5,0.0,0.029999999329447746,1.4500000476837158,0.0,0.0,[0.0,0.0,0.0,1.0],1.0,1.0,[0.0,0.0,0.0],[0.0,0.0,0.0],[0.0,0.0,0.0]],"is_active_output":false,"name":"Principled BSDF","outputs":[[0,0,0,0]],"type":"BSDF_PRINCIPLED_BL"},{"inputs":[[0,0,0,0],[0,0,0,0],[0.0,0.0,0.0]],"is_active_output":true,"name":"Material Output","outputs":[],"type":"OUTPUT_MATERIAL_BL"}]},"useCastShadows":true}},"name":"Bronze"},{"extensions":{"S8S_v3d_materials":{"gtaoVisible":true,"materialIndex":0,"nodeGraph":{"edges":[{"fromNode":0,"fromOutput":0,"toInput":0,"toNode":1}],"nodes":[{"inputs":[[0.8000000715255737,0.4915478825569153,0.0,1.0],0.0,[1.0,0.20000000298023224,0.10000000149011612],[0.800000011920929,0.800000011920929,0.800000011920929,1.0],1.399999976158142,0.0,1.0,0.5,0.0,0.0,0.0,0.0,0.0,0.5,0.0,0.029999999329447746,1.4500000476837158,0.0,0.0,[0.0,0.0,0.0,1.0],1.0,1.0,[0.0,0.0,0.0],[0.0,0.0,0.0],[0.0,0.0,0.0]],"is_active_output":false,"name":"Principled BSDF","outputs":[[0,0,0,0]],"type":"BSDF_PRINCIPLED_BL"},{"inputs":[[0,0,0,0],[0,0,0,0],[0.0,0.0,0.0]],"is_active_output":true,"name":"Material Output","outputs":[],"type":"OUTPUT_MATERIAL_BL"}]},"useCastShadows":true}},"name":"Gold"},{"extensions":{"S8S_v3d_materials":{"gtaoVisible":true,"materialIndex":0,"nodeGraph":{"edges":[{"fromNode":0,"fromOutput":0,"toInput":0,"toNode":1}],"nodes":[{"inputs":[[0.5704684853553772,0.549450695514679,0.5330784916877747,1.0],0.0,[1.0,0.20000000298023224,0.10000000149011612],[0.800000011920929,0.800000011920929,0.800000011920929,1.0],1.399999976158142,0.0,1.0,0.5,0.0,0.0,0.0,0.0,0.0,0.5,0.0,0.029999999329447746,1.4500000476837158,0.0,0.0,[0.0,0.0,0.0,1.0],1.0,1.0,[0.0,0.0,0.0],[0.0,0.0,0.0],[0.0,0.0,0.0]],"is_active_output":false,"name":"Principled BSDF","outputs":[[0,0,0,0]],"type":"BSDF_PRINCIPLED_BL"},{"inputs":[[0,0,0,0],[0,0,0,0],[0.0,0.0,0.0]],"is_active_output":true,"name":"Material Output","outputs":[],"type":"OUTPUT_MATERIAL_BL"}]},"useCastShadows":true}},"name":"Silver"},{"extensions":{"S8S_v3d_materials":{"gtaoVisible":true,"materialIndex":0,"nodeGraph":{"edges":[{"fromNode":4,"fromOutput":0,"toInput":0,"toNode":0},{"fromNode":3,"fromOutput":0,"toInput":0,"toNode":4},{"fromNode":2,"fromOutput":0,"toInput":0,"toNode":1}],"nodes":[{"inputs":[[0,0,0,0],[0,0,0,0]],"is_active_output":true,"name":"World Output","outputs":[],"type":"OUTPUT_WORLD_BL"},{"inputs":[[0.0,0.0,0.0],[0.0,0.0,0.0],[0.012217303737998009,0.0,0.0],[0.0,0.0,0.0]],"is_active_output":false,"name":"Mapping","outputs":[[0.0,0.0,0.0]],"type":"MAPPING_BL","vectorType":"NORMAL"},{"inputs":[],"is_active_output":false,"name":"Texture Coordinate","object":3,"outputs":[[0.0,0.0,0.0],[0.0,0.0,0.0],[0.0,0.0,0.0],[0.0,0.0,0.0],[0.0,0.0,0.0],[0.0,0.0,0.0],[0.0,0.0,0.0]],"type":"TEX_COORD_BL"},{"inputs":[[0.0,0.0,0.0]],"is_active_output":false,"name":"Environment Texture","outputs":[[0.0,0.0,0.0,0.0]],"projection":"EQUIRECTANGULAR","texture":0,"type":"TEX_ENVIRONMENT_BL"},{"inputs":[[0.05087608844041824,0.05087608844041824,0.05087608844041824,1.0],2.3999991416931152],"is_active_output":false,"name":"Background","outputs":[[0,0,0,0]],"type":"BACKGROUND_BL"}]},"useCastShadows":true}},"name":"Verge3D_Environment_World"}],"meshes":[{"extensions":{"S8S_v3d_mesh":{"colorLayers":{},"uvLayers":{"UVMap":"TEXCOORD_0"}}},"extras":{"targetNames":["Length"]},"name":"Cube.002","primitives":[{"attributes":{"NORMAL":2,"POSITION":1,"TEXCOORD_0":3},"indices":0,"material":3,"mode":4,"targets":[{"NORMAL":5,"POSITION":4}]}],"weights":[0.19999998807907104]},{"extensions":{"S8S_v3d_mesh":{"colorLayers":{},"uvLayers":{"UVMap":"TEXCOORD_0"}}},"name":"Icosphere","primitives":[{"attributes":{"NORMAL":8,"POSITION":7,"TEXCOORD_0":9},"indices":6,"material":3,"mode":4}]},{"extensions":{"S8S_v3d_mesh":{"colorLayers":{},"uvLayers":{"UVMap":"TEXCOORD_0"}}},"name":"Icosphere.003","primitives":[{"attributes":{"NORMAL":12,"POSITION":11,"TEXCOORD_0":13},"indices":10,"material":2,"mode":4}]},{"extensions":{"S8S_v3d_mesh":{"colorLayers":{},"uvLayers":{"UVMap":"TEXCOORD_0"}}},"name":"Icosphere.004","primitives":[{"attributes":{"NORMAL":16,"POSITION":15,"TEXCOORD_0":17},"indices":14,"material":0,"mode":4}]},{"extensions":{"S8S_v3d_mesh":{"colorLayers":{},"uvLayers":{"UVMap":"TEXCOORD_0"}}},"name":"Icosphere.005","primitives":[{"attributes":{"NORMAL":20,"POSITION":19,"TEXCOORD_0":21},"indices":18,"material":1,"mode":4}]}],"nodes":[{"camera":0,"extensions":{"S8S_v3d_node":{"frustumCulling":true,"groupNames":["Collection"],"hidden":false,"hidpiCompositing":false,"objectColor":[0.0,0.0,0.0,0.0],"objectIndex":0,"renderOrder":0}},"name":"Camera","rotation":[-0.1740601360797882,-0.23754194378852844,-0.04330967739224434,0.9546733498573303],"scale":[1.0,0.9999998807907104,0.9999998807907104],"translation":[-5.6804680824279785,4.874273777008057,13.026384353637695]},{"extensions":{"S8S_v3d_node":{"constraints":[{"maxX":3.0,"maxY":"Infinity","maxZ":"Infinity","minX":0.0,"minY":"-Infinity","minZ":"-Infinity","mute":false,"name":"Limit Location","type":"limitLocation"}],"frustumCulling":true,"groupNames":["Collection"],"hidden":false,"hidpiCompositing":false,"objectColor":[1.0,1.0,1.0,1.0],"objectIndex":0,"renderOrder":0,"useShadows":true}},"mesh":2,"name":"Icosphere2","scale":[0.19949489831924438,0.19949489831924438,0.19949489831924438],"translation":[0.0,1.2148675918579102,-0.0]},{"extensions":{"S8S_v3d_node":{"constraints":[{"maxX":3.0,"maxY":"Infinity","maxZ":"Infinity","minX":0.0,"minY":"-Infinity","minZ":"-Infinity","mute":false,"name":"Limit Location","type":"limitLocation"}],"frustumCulling":true,"groupNames":["Collection"],"hidden":false,"hidpiCompositing":false,"objectColor":[1.0,1.0,1.0,1.0],"objectIndex":0,"renderOrder":0,"useShadows":true}},"mesh":4,"name":"Icosphere4","scale":[0.19949489831924438,0.19949489831924438,0.19949489831924438],"translation":[0.0,1.2148675918579102,-0.0]},{"extensions":{"S8S_v3d_node":{"frustumCulling":true,"groupNames":["Collection"],"hidden":false,"hidpiCompositing":false,"objectColor":[1.0,1.0,1.0,1.0],"objectIndex":0,"renderOrder":0,"useShadows":true}},"mesh":0,"name":"Cube"},{"extensions":{"S8S_v3d_node":{"constraints":[{"maxX":3.0,"maxY":"Infinity","maxZ":"Infinity","minX":0.0,"minY":"-Infinity","minZ":"-Infinity","mute":false,"name":"Limit Location","type":"limitLocation"}],"frustumCulling":true,"groupNames":["Collection"],"hidden":false,"hidpiCompositing":false,"objectColor":[1.0,1.0,1.0,1.0],"objectIndex":0,"renderOrder":0,"useShadows":true}},"mesh":1,"name":"Icosphere1","scale":[0.19949489831924438,0.19949489831924438,0.19949489831924438],"translation":[0.0,1.2148675918579102,-0.0]},{"extensions":{"S8S_v3d_lights":{"light":0},"S8S_v3d_node":{"frustumCulling":true,"groupNames":["Collection"],"hidden":false,"hidpiCompositing":false,"objectColor":[1.0,1.0,1.0,1.0],"objectIndex":0,"renderOrder":0}},"name":"Sun","rotation":[-0.38263851404190063,0.15068738162517548,-0.14850926399230957,0.8993476033210754],"scale":[1.0,1.0,0.9999999403953552],"translation":[1.4238959550857544,1.5711443424224854,1.7546143531799316]},{"extensions":{"S8S_v3d_node":{"constraints":[{"maxX":3.0,"maxY":"Infinity","maxZ":"Infinity","minX":0.0,"minY":"-Infinity","minZ":"-Infinity","mute":false,"name":"Limit Location","type":"limitLocation"}],"frustumCulling":true,"groupNames":["Collection"],"hidden":false,"hidpiCompositing":false,"objectColor":[1.0,1.0,1.0,1.0],"objectIndex":0,"renderOrder":0,"useShadows":true}},"mesh":3,"name":"Icosphere3","scale":[0.19949489831924438,0.19949489831924438,0.19949489831924438],"translation":[0.0,1.2148675918579102,-0.0]}],"samplers":[{}],"scene":0,"scenes":[{"extensions":{"S8S_v3d_scene":{"aaMethod":"AUTO","iblEnvironmentMode":"PROBE_CUBEMAP","physicallyCorrectLights":true,"pmremMaxTileSize":512,"postprocessing":[{"bentNormals":true,"bounceApprox":true,"distance":0.20000000298023224,"factor":1.0,"precision":0.25,"type":"gtao"}],"shadowMap":{"esmDistanceScale":1.0,"renderReverseSided":false,"renderSingleSided":true,"type":"PCFPOISSON"},"toneMapping":{"type":"filmicBlender"},"useHDR":true,"worldMaterial":4}},"extras":{"animFrameRate":24,"coordSystem":"Z_UP_RIGHT"},"name":"Scene","nodes":[0,4,5,3,1,6,2]}],"textures":[{"extensions":{"S8S_v3d_texture":{"colorSpace":"srgb"}},"name":"cape_hill_4k.exr","sampler":0,"source":0}]}
